<svg width="72" height="72" viewBox="0 0 72 72" fill="none" xmlns="http://www.w3.org/2000/svg">
<g id="icon_tg">
<path id="Vector" d="M35.8405 0C16.0462 0 0 16.0462 0 35.8405C0 55.6348 16.0462 71.6809 35.8405 71.6809C55.6348 71.6809 71.6809 55.6348 71.6809 35.8405C71.6809 16.0462 55.6348 0 35.8405 0Z" fill="#40B3E0"/>
<path id="Vector_2" d="M53.2798 20.617L46.8784 52.8921C46.8784 52.8921 45.9832 55.1305 43.5211 54.0561L28.7487 42.7305L23.3771 40.1343L14.3347 37.0901C14.3347 37.0901 12.947 36.5979 12.8126 35.5235C12.6785 34.4491 14.3795 33.8673 14.3795 33.8673L50.3252 19.7663C50.3252 19.7663 53.2798 18.4682 53.2798 20.617Z" fill="white"/>
<path id="Vector_3" d="M27.6133 52.5296C27.6133 52.5296 27.1821 52.4893 26.6448 50.788C26.1077 49.087 23.3772 40.1342 23.3772 40.1342L45.0878 26.3468C45.0878 26.3468 46.3414 25.5857 46.2966 26.3468C46.2966 26.3468 46.5203 26.4809 45.8488 27.1076C45.1774 27.7345 28.7935 42.4618 28.7935 42.4618" fill="#D2E5F1"/>
<path id="Vector_4" d="M34.4129 47.0729L28.5697 52.4003C28.5697 52.4003 28.1131 52.7469 27.6133 52.5296L28.7321 42.634" fill="#B5CFE4"/>
</g>
</svg>
